<?xml version="1.0" encoding="UTF-8" standalone="no"?>
<svg
   xmlns:dc="http://purl.org/dc/elements/1.1/"
   xmlns:cc="http://creativecommons.org/ns#"
   xmlns:rdf="http://www.w3.org/1999/02/22-rdf-syntax-ns#"
   xmlns:svg="http://www.w3.org/2000/svg"
   xmlns="http://www.w3.org/2000/svg"
   viewBox="0 0 368.22668 309.41333"
   height="309.41333"
   width="368.22668"
   xml:space="preserve"
   id="svg2"
   version="1.1"><metadata
     id="metadata8"><rdf:RDF><cc:Work
         rdf:about=""><dc:format>image/svg+xml</dc:format><dc:type
           rdf:resource="http://purl.org/dc/dcmitype/StillImage" /></cc:Work></rdf:RDF></metadata><defs
     id="defs6" /><g
     transform="matrix(1.3333333,0,0,-1.3333333,0,309.41333)"
     id="g10"><g
       transform="scale(0.1)"
       id="g12"><path
         id="path14"
         style="fill:#eeae3b;fill-opacity:1;fill-rule:nonzero;stroke:none"
         d="m 1594.07,529.648 c 20.47,7.161 38.66,14.34 57.36,19.75 11.02,3.192 14.06,8.614 14.03,19.793 -0.39,140.668 -0.19,281.329 -0.37,422 -0.01,11.989 -1.02,24.059 -2.53,35.969 -19.99,157.89 -169.72,269.28 -327.02,243.45 -139.8,-22.95 -240.02,-140.86 -240.12,-282.579 -0.05,-68.769 -0.01,-137.543 -0.01,-206.32 0,-71.449 -0.1,-142.902 0.24,-214.352 0.02,-4.937 2.16,-12.98 5.44,-14.3 20.93,-8.399 42.46,-15.321 65.46,-23.309 0,7.25 0,12.988 0,18.719 0,143.801 -0.07,287.59 0.12,431.39 0.02,14.223 0.57,28.591 2.62,42.641 15.96,109.7 119.92,197.33 245.24,177.99 101.79,-15.7 181.44,-106.42 179.99,-218.451 -1.87,-144.66 -0.45,-289.367 -0.45,-434.051 0,-5.629 0,-11.258 0,-18.34 z M 1359.69,62.4297 c 0,25.6016 -0.67,49.2113 0.27,72.7503 0.48,11.902 -3.92,16.992 -14.81,21.152 -97.55,37.34 -198.98,55.348 -302.81,60.137 -109.281,5.031 -217.496,-5.098 -323.602,-31.867 -132.679,-33.481 -266.652,-46.571 -403,-32.051 -85.586,9.121 -168.347,29.32 -247.7888,62.699 -4.2578,1.789 -8.6015,3.379 -16.1445,6.32 4.6328,-29.91 9.4414,-56.511 12.625,-83.3 1.6992,-14.309 9.125,-21.301 21.5117,-27.188 C 181.348,65.75 282.523,45.4219 387.309,42.1094 c 100.539,-3.168 199.269,10.4297 295.582,39.25 135.879,40.6526 273.867,59.9726 415.729,46.0816 83.87,-8.222 165.25,-26.39 243.37,-58.4097 5.21,-2.1407 10.55,-3.9493 17.7,-6.6016 z M 2708.88,220.691 c -5.51,-1.261 -7.31,-1.382 -8.86,-2.07 -97.38,-43.09 -200,-64.633 -305.68,-70.59 -105.56,-5.949 -210.44,2.258 -313.34,27.617 -88.06,21.704 -176.87,37.723 -267.61,41.09 -84.51,3.141 -168.79,-1.027 -251.44,-19.328 -50.28,-11.14 -99.36,-27.719 -148.82,-42.43 -4.65,-1.378 -11.42,-6.699 -11.56,-10.398 -0.99,-26.684 -0.53,-53.4101 -0.53,-79.8203 2.09,-0.4922 3.06,-1.0508 3.79,-0.832 2.97,0.9023 5.93,1.9101 8.81,3.0898 118.99,48.8785 243.05,68.0315 371.22,64.2305 88.68,-2.629 175.71,-15.801 260.59,-41.1797 129,-38.582 259.79,-58.1601 394.55,-43.2383 83.01,9.1875 162.8,29.5782 238.25,66.078 10.24,4.961 15.63,11.172 17.16,22.789 3.64,27.633 8.64,55.082 13.47,84.992 z m -1206.25,267.27 c 14.45,6.777 26.65,13.09 39.32,18.238 8.26,3.36 10.92,8.133 10.9,17.09 -0.29,157.652 0.72,315.313 -0.6,472.949 -0.73,87.172 -73.76,166.752 -173.97,165.952 -96.47,-0.77 -170.28,-78.78 -170.3,-175.37 -0.03,-152.738 -0.01,-305.468 0,-458.211 0,-3.57 -0.57,-7.277 0.22,-10.668 0.73,-3.121 2.2,-7.332 4.63,-8.57 12.12,-6.242 24.66,-11.66 39.04,-18.289 0,7.387 0,12.59 0,17.797 0,160.769 -0.02,321.543 0.04,482.32 0,16.631 8.2,26.351 21.79,26.631 13.31,0.28 22.07,-9.77 22.59,-25.959 0.09,-2.68 0.02,-5.359 0.02,-8.039 0,-164.793 0.32,-329.594 -0.48,-494.383 -0.08,-17.59 4.63,-27.758 20.38,-35.347 14.46,-6.961 27.49,-16.891 42.49,-26.364 0,7.731 0,13.082 0,18.434 0,202.297 0,404.609 0,606.918 0,4.02 -0.22,8.06 0.07,12.06 0.9,12.23 10.06,20.44 22.22,20.11 13.66,-0.36 20.92,-9.59 20.92,-26.83 0.02,-204.539 0.02,-409.078 0.02,-613.621 0,-5.137 0,-10.27 0,-17.168 15.83,9.98 29.33,19.339 43.65,27.199 9.84,5.398 12.96,11.961 12.93,23.269 -0.42,170.602 -0.31,341.2 -0.27,511.801 0,17.75 7.9,27.65 21.87,27.92 13.9,0.27 22.2,-9.78 22.52,-27.299 0.05,-2.679 0.01,-5.359 0.01,-8.043 0,-158.09 0,-316.187 -0.01,-474.277 0,-6.109 0,-12.211 0,-20.25 z M 45.8398,395.488 c 0,-29.808 0.9961,-60.859 -0.3046,-91.808 C 44.4414,277.719 55.7461,264.969 79.7188,255.25 196.715,207.789 318.063,187 443.988,188.5 c 78.875,0.93 156.617,10.012 232.946,29.039 140.918,35.152 283.218,50.41 428.256,36.199 91.47,-8.968 180.3,-28.34 265.73,-62.707 5.4,-2.172 13.2,-2.23 18.57,-0.051 103.18,42 211.12,61.911 321.73,67.11 115.09,5.398 229.03,-5.539 340.94,-33.508 90.78,-22.684 182.65,-36.652 276.24,-36.934 62.95,-0.179 125.62,5.321 187.43,17.821 63.95,12.929 126.21,31.293 185.29,59.562 7.67,3.66 11.34,8.09 11.62,17.039 0.5,16.032 3.33,31.981 3.84,48.012 0.7,22.34 0.17,44.719 0.17,67.137 -24.26,-12.617 -46.74,-25.481 -70.16,-36.297 -184.53,-85.25 -377.39,-102.113 -575.37,-65.184 -129.61,24.172 -259.13,32.871 -389.95,14.153 -90.55,-12.961 -178.73,-35.403 -260.48,-76.86 -28.7,-14.562 -49.88,-14.902 -79.56,-1.039 C 1152.2,320.23 953.297,337.93 749.047,305.738 675.027,294.082 601.523,279.609 526.273,277.961 390.656,274.988 259.707,297 134.996,351.398 104.133,364.859 74.5273,381.211 45.8398,395.488 Z M 59.2109,574.969 C 54.8164,537.211 50.8633,500.859 46.1953,464.609 44.8789,454.41 47.4844,447.969 56.8008,443.051 70.1836,435.98 82.5977,427.059 96.0273,420.082 280.992,324.02 476.805,301.832 679.801,338.98 c 129.582,23.711 259.09,33.75 390.119,17.051 105.6,-13.449 207.08,-40.902 302.74,-88.48 4.25,-2.11 11.18,-1.699 15.75,0.211 19.73,8.226 38.69,18.34 58.56,26.168 191.71,75.601 389.54,88.289 590.65,51.961 116.85,-21.121 233.3,-31.321 351.28,-14.231 104.72,15.172 203.57,47.371 296.18,99.211 22.42,12.551 35.81,25.961 27.23,52.731 -0.27,0.82 -0.09,1.777 -0.2,2.66 -3.65,29.398 -7.31,58.789 -10.94,87.879 -2.47,0 -3,0.168 -3.29,-0.02 -7.47,-4.859 -14.81,-9.922 -22.38,-14.633 -185.95,-115.758 -389.7,-153.277 -605.26,-135.207 -88.73,7.449 -177.09,11.688 -265.81,1.5 -146.78,-16.851 -285.39,-57.57 -410.46,-138.531 -9.26,-6 -18.26,-5.969 -27.47,0.121 -64.09,42.379 -133.87,72.488 -206.85,95.598 -135.24,42.832 -273.72,58.011 -414.845,45.543 -93.594,-8.274 -186.875,-12.723 -280.512,-0.953 -112.563,14.16 -219.844,45.191 -320.418,97.929 -28.273,14.832 -55.2227,32.184 -84.6641,49.481 z m 45.2771,195.32 C 95.8867,736.77 86.8594,703.211 78.7148,669.441 67.5742,623.25 67.6563,622.852 108.434,597.52 282.773,489.23 473.969,451.75 676.184,467.699 c 112.984,8.91 225.3,13.481 337.696,-4.429 127.19,-20.282 247.75,-59.231 358.19,-126.68 6.27,-3.828 10.26,-3.699 16.52,0.012 197.51,117.168 412.54,154.277 638.47,135.128 109.58,-9.289 218.2,-11.082 326.52,10.008 113.27,22.051 219.45,61.762 315.3,126.981 22.86,15.562 22.66,15.832 16.97,42.422 -1.12,5.23 -1.99,10.519 -3.31,15.699 -8.81,34.73 -17.71,69.449 -26.95,105.57 -16.84,-12.359 -31.23,-23.57 -46.25,-33.851 C 2441.76,623.98 2254.2,573.16 2053.37,568.148 c -101.19,-2.527 -201.28,-10.457 -299.62,-35.347 -130.12,-32.942 -251.7,-84.262 -358.73,-166.832 -10.35,-7.989 -20.15,-6.887 -30.52,0.64 -20.56,14.95 -40.82,30.469 -62.44,43.75 C 1137.75,511.23 957.602,559.02 766.238,566.371 692.168,569.219 618.215,570.84 544.91,583.27 426.922,603.281 314.902,640.359 211.367,700.82 175.293,721.879 141.176,746.301 104.488,770.289 Z M 2141.12,620.109 c 3.33,-1.078 3.75,-1.339 4.18,-1.339 41.64,-0.18 42,0.171 41.99,41.14 -0.02,201.891 0.05,403.78 -0.18,605.67 -0.04,37.86 9.2,71.81 38.91,97.22 58.19,49.79 160.05,20.55 178.33,-51.29 14.87,-58.45 -31.67,-126.71 -99.91,-116.25 -24.91,3.82 -45.04,15.85 -54.63,39.92 -8.61,21.61 -5.99,43 8.36,62.08 14.46,19.23 43.49,24.31 63.75,11.38 11.14,-7.1 15.17,-18.47 10.16,-28.62 -4.67,-9.45 -15.88,-12.85 -27.91,-9.53 -4.29,1.18 -12.49,1.4 -13.29,-0.41 -2.44,-5.55 -4.22,-12.94 -2.5,-18.44 3.57,-11.43 21.48,-18.89 34.9,-16.36 21.92,4.12 33.46,19.32 40.3,38.81 6.55,18.68 1.84,35.55 -12.05,49.07 -22.3,21.7 -49.17,29.04 -78.83,19.11 -28.21,-9.45 -40.33,-32.26 -43.54,-60.36 -1.46,-12.82 -2.18,-25.81 -2.19,-38.72 -0.13,-196.98 -0.09,-393.952 -0.05,-590.928 0.01,-6.571 0.55,-13.141 0.95,-22.133 22.78,5.269 44.04,9.672 65.03,15.141 124.04,32.351 238.48,84.39 338.38,166.011 4.83,3.949 9.55,8.059 14.13,12.309 17.96,16.621 35.96,12.851 42.49,-10.328 14.96,-53.16 30.46,-106.262 42.81,-160.063 20.2,-88.07 31.24,-177.617 30.94,-268 -0.15,-44.39 -5.24,-88.879 -10.02,-133.117 -4.97,-46 -12.54,-91.711 -18.39,-137.633 -1.94,-15.2107 -9.45,-24.5193 -22.93,-31.6482 C 2638.96,45.0313 2562.95,21.9219 2483.36,10.7813 2445.89,5.53906 2408.01,1.46875 2370.22,0.5 2256.89,-2.39844 2146.64,16.8086 2038.19,49.1289 1936.24,79.5195 1831.82,93.8594 1725.32,89.7383 1613.36,85.4102 1504.89,64.5313 1403.11,15.9805 1386.39,8 1373.5,8.21875 1357.02,16.2305 1281.33,52.9883 1200.73,72.8789 1117.47,83.3516 1046.26,92.2891 975.051,92.6094 903.816,85.1797 833.637,77.8594 765.074,62.4609 697.457,42.3711 595.84,12.1797 491.863,-2.78906 385.914,0.429688 277.559,3.71875 172.305,23.5195 73.9297,71.2109 21.6836,96.5313 33.0703,86.7617 23.0039,138.551 15.7969,175.609 12.8398,213.539 8.86328,251.18 5.125,286.582 0.132813,322.09 0.0117188,357.57 -0.15625,407.449 1.25391,457.582 6.28906,507.172 16.8555,611.25 39.3984,713.051 72.3203,812.449 80.2539,836.391 96.5508,840.09 115.543,823.34 187.375,760 269.512,713.398 358.969,680.789 c 52.586,-19.168 107.441,-32.117 161.308,-47.75 3.332,-0.961 6.969,-0.867 12.153,-1.469 0.472,5.27 1.254,9.891 1.254,14.512 0.058,206.359 0.109,412.718 0,619.068 -0.024,40.97 -17.278,68.42 -48.246,78.18 -27.825,8.77 -63.102,-2.4 -80.625,-25.54 -14.278,-18.84 -12.54,-44.82 4.375,-65.4 13.785,-16.78 33.511,-21.79 51.265,-13.02 12.539,6.19 18.156,17.02 12.313,26.72 -2.078,3.45 -9.262,6.8 -12.926,5.8 -17.055,-4.62 -26.735,-2.16 -31.527,10.07 -4.633,11.83 0.925,22.7 16.148,29.26 17.176,7.41 34.418,6.93 49.301,-5.13 17.551,-14.22 25.633,-33.66 21.789,-55.88 -8.539,-49.38 -68.004,-72.22 -114.621,-44.75 -58.11,34.24 -63.239,116.95 -9.356,157.18 36.949,27.59 77.942,33.46 119.977,14.84 40.652,-18.02 58.461,-53.01 61.808,-96.13 0.59,-7.55 0.754,-15.16 0.758,-22.74 0.039,-204.57 -0.023,-409.141 0.113,-613.712 0.012,-21.117 -4.222,-21.777 20.93,-24.109 7.383,-0.68 14.735,-1.73 24.34,-2.867 0,8.367 0,14.93 0,21.476 0,236.293 -0.004,472.572 0.012,708.852 0.004,5.36 -0.407,10.81 0.426,16.05 1.687,10.64 8.48,16.81 19.164,16.99 11.144,0.19 18.789,-5.38 20.293,-17.02 0.742,-5.72 0.496,-11.59 0.496,-17.39 0.019,-236.28 0.015,-472.571 0.015,-708.849 -0.004,-7.48 -0.004,-14.972 -0.004,-25.57 14.141,0 26.469,-0.34 38.746,0.309 2.235,0.121 5.508,4 6.102,6.64 1.059,4.692 0.496,9.762 0.496,14.672 0.016,238.066 0.012,476.138 0.027,714.208 0,5.36 -0.414,10.82 0.43,16.05 1.707,10.63 8.512,16.8 19.195,16.96 11.149,0.16 18.774,-5.42 20.266,-17.07 0.731,-5.72 0.484,-11.59 0.488,-17.39 0.02,-238.07 0.02,-476.141 0.024,-714.211 0,-6.59 0,-13.168 0,-22.438 13.789,0 25.691,-0.421 37.523,0.321 2.668,0.168 6.399,3.937 7.305,6.797 1.297,4.07 0.5,8.832 0.5,13.293 0.012,210.378 0.105,420.758 -0.07,631.128 -0.032,37.03 7.613,70.93 35.347,97.64 50.059,48.21 144.883,31.72 175.939,-30.51 17.54,-35.13 8.5,-82.19 -21.275,-110.85 -26.785,-25.79 -67.101,-31.36 -99.031,-13.69 -34.644,19.17 -43.469,64.16 -18.457,94.13 15.859,19 44.121,23.07 63.977,9.22 10.035,-7.01 13.605,-18.2 8.437,-27.93 -5.93,-11.16 -16.012,-12.27 -26.574,-8.96 -6.004,1.88 -11.555,6.41 -15.891,-1.72 -4.402,-8.25 -4.062,-16.24 2.52,-23.48 11.523,-12.68 35.019,-13.91 50.234,-2.57 33.676,25.08 32.211,67.85 -3.097,90.62 -49.25,31.74 -106.016,3.6 -110.196,-54.76 -0.89,-12.44 -1.375,-24.95 -1.383,-37.43 -0.082,-203.23 -0.058,-406.46 -0.054,-609.69 0,-24.488 0.234,-23.141 24.394,-27.328 63.203,-10.973 126.18,-23.231 189.246,-35 2.13,-0.402 4.23,-1.012 8.1,-1.953 0.3,6.41 0.78,11.929 0.78,17.453 0.04,134.449 0,268.887 0.04,403.34 0.04,153.588 103.43,283.788 253.33,319.108 181.05,42.67 363.07,-78.06 394.07,-261.79 3.25,-19.24 4.96,-38.97 5.02,-58.478 0.43,-133.551 0.23,-267.102 0.23,-400.653 0,-5.738 0,-11.48 0,-18.711 25.18,5.821 48.65,12.434 72.55,16.532 45.22,7.769 90.64,14.55 136.11,20.691 11.2,1.519 14.96,4.898 14.94,16.43 -0.31,211.718 -0.04,423.439 -0.58,635.149 -0.04,16.63 -2.98,34.01 -8.42,49.71 -9.88,28.48 -36.86,42.71 -68.5,39.35 -32.36,-3.44 -57.68,-23.32 -61.4,-50.49 -2.8,-20.47 6.29,-37.5 21.85,-50.48 12.63,-10.55 27.03,-12.94 42.45,-5.67 12.47,5.88 17.69,16.12 13.44,26.61 -2.69,6.64 -5.94,10.06 -14.18,6.71 -14.92,-6.08 -26.18,-2.26 -30.61,8.96 -4.54,11.53 0.69,22.23 14.31,29.26 21.16,10.93 46.95,4.84 60.96,-14.4 29.15,-40.02 3.31,-95.32 -47.16,-100.94 -43.69,-4.87 -79.4,16.96 -95.95,58.65 -16.07,40.48 -4.04,83.48 31.89,109.5 38.14,27.63 80.01,33.32 122.44,12.49 42.04,-20.63 58.62,-58.44 58.68,-103.54 0.31,-213.95 0.14,-427.901 0.15,-641.85 0,-20.121 0.04,-20.301 20.04,-19.851 31.85,0.703 25.98,-2.278 26,26.742 0.22,236.73 0.12,473.459 0.13,710.189 0,4.91 -0.19,9.84 0.11,14.73 0.69,11.64 8.59,19.26 19.64,19.25 11.16,-0.01 19.08,-7.58 19.75,-19.07 0.23,-4.01 0.08,-8.04 0.08,-12.06 0,-239.41 0,-478.82 0.01,-718.231 0,-19.757 0.05,-20.148 19.26,-19.23 30.72,1.48 26.83,-4.359 26.85,27.582 0.1,236.73 0.05,473.459 0.07,710.189 0,4.91 -0.54,9.96 0.37,14.71 2.02,10.66 9.11,16.32 19.85,15.96 10.49,-0.35 17.74,-5.65 19.11,-16.73 0.54,-4.41 0.23,-8.93 0.23,-13.39 0.01,-237.18 0.01,-474.348 0.01,-711.528 0,-6.57 0,-13.152 0,-19.563" /><path
         id="path16"
         style="fill:#eeae3b;fill-opacity:1;fill-rule:nonzero;stroke:none"
         d="m 2239.96,1738.78 c -587.14,0 -1172.79,0 -1759.847,0 0,-38.06 -0.14,-75.04 0.332,-112.01 0.032,-2.41 4.5,-6.22 7.43,-6.82 5.586,-1.14 11.547,-0.47 17.348,-0.47 568.497,-0.01 1136.997,-0.01 1705.497,-0.01 29.24,0 29.24,0 29.24,28.72 0,29.83 0,59.67 0,90.59 z m -880.89,-296.19 c 308.12,0 616.24,0 924.37,0 43.76,0 87.52,-0.02 131.28,0.01 17.51,0.01 17.55,0.07 17.57,18.05 0.03,29.02 0.29,58.05 -0.07,87.07 -0.43,35.21 6,31.32 -31.06,31.32 -693.95,0.09 -1387.9,0.07 -2081.844,0.06 -6.25,0 -12.523,-0.41 -18.746,-0.01 -9.918,0.64 -13.168,-3.7 -13.047,-13.45 0.426,-33.94 0.153,-67.88 0.161,-101.82 0.004,-21.22 0.011,-21.23 21.089,-21.23 350.098,0 700.197,0 1050.297,0 z m 909.45,338.77 c 0.38,0.94 0.75,1.88 1.13,2.82 -4.3,2.55 -8.52,5.26 -12.92,7.64 -50.59,27.42 -101.21,54.78 -151.81,82.17 -243.99,132.07 -488,264.09 -731.84,396.44 -9.26,5.03 -16.17,5.47 -25.55,0.37 -134.34,-73.16 -268.89,-145.96 -403.409,-218.81 -158.832,-86.01 -317.695,-171.97 -476.512,-258.01 -5.859,-3.18 -11.382,-6.98 -17.058,-10.49 0.414,-0.71 0.828,-1.42 1.242,-2.13 605.577,0 1211.147,0 1816.727,0 z m 16.33,-42.43 c 0,-40.08 0,-78.41 0,-118.36 5.44,-0.37 10.59,-1.03 15.74,-1.04 49.12,-0.08 98.24,0 147.36,-0.09 19.16,-0.03 24.63,-5.45 24.67,-24.83 0.14,-55.82 0.15,-111.65 0.04,-167.47 -0.03,-19.09 -5.65,-24.48 -24.92,-24.89 -3.57,-0.07 -7.14,-0.02 -10.71,-0.02 -717.19,0 -1434.38,0 -2151.561,0 -36.348,0 -38.199,1.86 -38.184,37.6 0.024,50.01 -0.051,100.03 -0.004,150.05 0.024,25.16 4.516,29.58 29.637,29.59 46.891,0.01 93.777,0.01 140.668,0.01 5.269,0 10.535,0 16.898,0 0,40.06 0,78.66 0,118.88 -4.554,0.47 -9.629,1.41 -14.711,1.46 -18.304,0.18 -36.617,0.11 -54.925,0.06 -10.629,-0.04 -19.762,2.41 -22.657,14.28 -2.984,12.25 2.25,20.37 13.079,26.2 62.414,33.66 124.699,67.55 187.05,101.32 192.164,104.09 384.34,208.14 576.5,312.22 74.91,40.58 149.87,81.06 224.63,121.91 11.31,6.18 21.22,6.42 32.67,0.2 242.68,-131.64 485.48,-263.07 728.25,-394.54 85.5,-46.29 170.99,-92.59 256.48,-138.89 2.75,-1.49 5.58,-2.85 8.18,-4.56 8.22,-5.39 12.1,-12.92 9.79,-22.73 -2.35,-9.95 -8.97,-15.16 -19.21,-15.25 -18.75,-0.16 -37.51,-0.04 -56.26,-0.19 -5.72,-0.04 -11.44,-0.55 -18.5,-0.92" /><path
         id="path18"
         style="fill:#eeae3b;fill-opacity:1;fill-rule:nonzero;stroke:none"
         d="m 1381.6,2012.42 c 0,-61.19 -0.07,-122.38 0.06,-183.57 0.02,-11.35 -4.99,-18.83 -15.69,-22.02 -10.2,-3.04 -18.85,0.35 -24.29,9.24 -2.37,3.88 -3.17,9.27 -3.17,13.97 -0.17,122.38 -0.16,244.76 -0.1,367.14 0.01,15.16 9.01,24.83 22.17,24.45 12.68,-0.37 20.96,-9.7 20.98,-24.29 0.09,-61.64 0.04,-123.28 0.04,-184.92" /><path
         id="path20"
         style="fill:#eeae3b;fill-opacity:1;fill-rule:nonzero;stroke:none"
         d="m 1182.43,1966.68 c -0.01,42.8 -0.02,85.62 0.01,128.42 0.01,4.9 -0.31,9.92 0.57,14.68 2.18,11.75 10.17,17.84 21.63,17.85 11.67,0 18.96,-6.7 21.34,-18.27 0.36,-1.72 0.17,-3.56 0.17,-5.34 0,-91.42 0.28,-182.84 -0.53,-274.24 -0.06,-7.34 -6,-17.6 -12.23,-21.03 -5.64,-3.12 -17.29,-1.21 -22.81,3.02 -5.1,3.92 -7.68,13.82 -7.79,21.14 -0.69,44.58 -0.35,89.18 -0.36,133.77" /><path
         id="path22"
         style="fill:#eeae3b;fill-opacity:1;fill-rule:nonzero;stroke:none"
         d="m 1493.82,1966.98 c 0,44.59 -0.03,89.18 0.01,133.77 0.02,17 7.53,26.63 20.92,27.07 13.78,0.47 22.73,-9.73 22.74,-26.78 0.1,-89.63 0.09,-179.26 0,-268.89 -0.02,-16.6 -8.29,-26.3 -21.74,-26.42 -13.4,-0.1 -21.89,9.88 -21.91,26.13 -0.06,45.04 -0.02,90.08 -0.02,135.12" /><path
         id="path24"
         style="fill:#eeae3b;fill-opacity:1;fill-rule:nonzero;stroke:none"
         d="m 1649.25,1920.55 c 0.01,29.44 -0.08,58.88 0.04,88.31 0.07,15.42 8.39,24.96 21.53,25.24 13.28,0.28 22.07,-9.08 22.1,-24.48 0.13,-59.77 0.11,-119.53 -0.03,-179.3 -0.03,-15.59 -8.59,-24.81 -21.98,-24.55 -13.19,0.25 -21.56,9.77 -21.62,25.14 -0.13,29.88 -0.04,59.77 -0.04,89.64" /><path
         id="path26"
         style="fill:#eeae3b;fill-opacity:1;fill-rule:nonzero;stroke:none"
         d="m 1027.01,1921.32 c -0.02,28.54 -0.07,57.09 0,85.63 0.05,17.7 8.1,27.45 22.16,27.15 13.53,-0.3 21.51,-10 21.53,-26.58 0.05,-58.43 0.06,-116.86 0,-175.28 -0.01,-16.52 -8.06,-26.22 -21.65,-26.47 -13.77,-0.26 -21.92,9.15 -21.99,25.9 -0.12,29.88 -0.03,59.76 -0.05,89.65" /><path
         id="path28"
         style="fill:#eeae3b;fill-opacity:1;fill-rule:nonzero;stroke:none"
         d="m 1848.43,1872.55 c -0.01,-14.25 0.15,-28.51 -0.06,-42.76 -0.22,-14.83 -8.29,-23.83 -21.07,-24.05 -13.1,-0.22 -22.4,9.46 -22.52,24.4 -0.25,28.95 -0.3,57.91 0.03,86.87 0.16,14.21 9.26,23.28 22.13,23.33 12.71,0.04 21.25,-9.18 21.45,-23.68 0.21,-14.7 0.05,-29.41 0.04,-44.11" /><path
         id="path30"
         style="fill:#eeae3b;fill-opacity:1;fill-rule:nonzero;stroke:none"
         d="m 871.551,1873.66 c -0.012,14.7 -0.242,29.41 0.054,44.11 0.274,13.54 8.958,22.49 21.211,22.58 12.407,0.08 22.051,-8.56 22.258,-21.78 0.473,-30.29 0.453,-60.59 0.012,-90.88 -0.191,-13.06 -10.008,-22.01 -22.184,-21.94 -12.382,0.08 -20.961,8.8 -21.261,22.48 -0.332,15.13 -0.075,30.29 -0.09,45.43" /><path
         id="path32"
         style="fill:#eeae3b;fill-opacity:1;fill-rule:nonzero;stroke:none"
         d="m 2003.83,1849.09 c -0.01,-7.56 0.3,-15.14 -0.08,-22.69 -0.6,-11.92 -8.85,-20.1 -20.21,-20.61 -11.1,-0.5 -21.85,7.05 -22.61,18.36 -1.12,16.81 -1.2,33.83 -0.02,50.64 0.86,12.19 11.7,19.52 23.62,18.47 11.21,-0.99 18.84,-9.32 19.26,-21.48 0.27,-7.55 0.05,-15.12 0.04,-22.69" /><path
         id="path34"
         style="fill:#eeae3b;fill-opacity:1;fill-rule:nonzero;stroke:none"
         d="m 716.145,1849.66 c 0,7.57 -0.254,15.14 0.058,22.69 0.496,11.98 8.461,20.19 19.813,20.92 11.32,0.73 22.078,-6.3 22.91,-17.75 1.254,-17.23 1.199,-34.7 -0.035,-51.94 -0.805,-11.25 -11.93,-18.56 -23.032,-17.76 -11.332,0.82 -19.14,9.02 -19.656,21.16 -0.316,7.55 -0.058,15.12 -0.058,22.68" /></g></g></svg>